<svg xmlns="http://www.w3.org/2000/svg" viewBox="0 0 54.9 71.27"><defs><style>.cls-1{fill:#fff;}</style></defs><title>Recurso 5</title><g id="Capa_2" data-name="Capa 2"><g id="Capa_1-2" data-name="Capa 1"><path class="cls-1" d="M18.38,26.51s5.16-16-4.55-20.35A54.08,54.08,0,0,0,0,35.4c14.67,2.54,18.38-8.89,18.38-8.89"/><path class="cls-1" d="M24.25,71.27c2.89-2.58,3.93-6.4,3.93-10.38A15.67,15.67,0,0,0,.32,51.05S3,70,24.25,71.27"/><path class="cls-1" d="M49.63,61.15a9.55,9.55,0,0,0-4.74-1.22,10.18,10.18,0,0,0-10,10.32,23.39,23.39,0,0,0,14.76-9.1"/><path class="cls-1" d="M54.89,41a14.09,14.09,0,1,1-8-25.68s2.74,3.15,5.51,11.71,2.49,14,2.49,14"/><path class="cls-1" d="M31.06.1s4.93.81,9.4,6.36A5.69,5.69,0,1,1,31.14,0"/></g></g></svg>